<?xml version="1.0" encoding="UTF-8" standalone="no"?>
<svg
   xmlns:dc="http://purl.org/dc/elements/1.1/"
   xmlns:cc="http://creativecommons.org/ns#"
   xmlns:rdf="http://www.w3.org/1999/02/22-rdf-syntax-ns#"
   xmlns:svg="http://www.w3.org/2000/svg"
   xmlns="http://www.w3.org/2000/svg"
   xmlns:sodipodi="http://sodipodi.sourceforge.net/DTD/sodipodi-0.dtd"
   xmlns:inkscape="http://www.inkscape.org/namespaces/inkscape"
   width="21.441816mm"
   height="24.885172mm"
   viewBox="0 0 21.441816 24.885172"
   version="1.1"
   id="svg8"
   inkscape:version="1.0beta2 (2b71d25, 2019-12-03)"
   sodipodi:docname="PDXR_Fuschia_logo.svg">
  <defs
     id="defs2" />
  <sodipodi:namedview
     id="base"
     pagecolor="#ffffff"
     bordercolor="#666666"
     borderopacity="1.0"
     inkscape:pageopacity="0.0"
     inkscape:pageshadow="2"
     inkscape:zoom="3.959798"
     inkscape:cx="35.660881"
     inkscape:cy="48.720435"
     inkscape:document-units="mm"
     inkscape:current-layer="layer1"
     inkscape:document-rotation="0"
     showgrid="false"
     inkscape:window-width="1280"
     inkscape:window-height="755"
     inkscape:window-x="0"
     inkscape:window-y="23"
     inkscape:window-maximized="0" />
  <metadata
     id="metadata5">
    <rdf:RDF>
      <cc:Work
         rdf:about="">
        <dc:format>image/svg+xml</dc:format>
        <dc:type
           rdf:resource="http://purl.org/dc/dcmitype/StillImage" />
        <dc:title></dc:title>
      </cc:Work>
    </rdf:RDF>
  </metadata>
  <g
     inkscape:label="Layer 1"
     inkscape:groupmode="layer"
     id="layer1"
     transform="translate(-37.665323,-68.191465)">
    <g
       style="font-style:normal;font-weight:normal;font-size:10.30310000000000059px;line-height:1.25;font-family:sans-serif;fill:#ff00b4;fill-opacity:1;stroke:none;stroke-width:0.257578"
       id="text16"
       transform="matrix(1.0271947,0,0,0.97352527,0,0.52916667)"
       aria-label="P">
      <path
         inkscape:connector-curvature="0"
         id="path1719"
         style="font-style:normal;font-variant:normal;font-weight:normal;font-stretch:normal;font-family:Moondance;-inkscape-font-specification:Moondance;stroke-width:0.257578;fill:#ff00b4;fill-opacity:1"
         d="m 39.037863,79.372398 h 1.236372 c 1.050916,0 1.906073,0.855157 1.906073,1.906073 0,0.700611 -0.381215,1.318797 -1.040613,1.700012 l -2.92608,1.689708 v 1.607284 h 0.824248 v -1.133341 c 2.534562,-1.463041 2.606684,-1.504253 2.709715,-1.566072 0.752126,-0.484245 1.256978,-1.329099 1.256978,-2.297591 0,-1.504252 -1.226069,-2.730321 -2.730321,-2.730321 h -2.06062 v 5.172156 C 38.811194,83.37 39.233621,83.143332 39.542714,82.96818 v -0.958189 l -0.504851,0.288487 z" />
    </g>
    <g
       aria-label="D"
       transform="scale(1.0271947,-0.97352527)"
       id="text20"
       style="font-style:normal;font-weight:normal;font-size:10.30310000000000059px;line-height:1.25;font-family:sans-serif;fill:#ff00b4;fill-opacity:1;stroke:none;stroke-width:0.257578">
      <path
         inkscape:connector-curvature="0"
         transform="matrix(0.25757856,0,0,-0.2717786,36.668144,-70.045912)"
         d="m 31.90625,3.0527344 v 2.8808594 h 3.201172 1.71875 c 1.866659,0 3.613575,0.3035988 5.240234,0.9101562 1.62666,0.6065599 3.040241,1.4404764 4.240235,2.5019531 1.226662,1.0614769 2.187527,2.3133289 2.880859,3.7539059 0.719995,1.46585 1.080078,3.033138 1.080078,4.701172 0,1.668037 -0.360083,3.209699 -1.080078,4.625 -0.693332,1.415304 -1.654197,2.639578 -2.880859,3.675781 -1.199994,1.036204 -2.613575,1.84645 -4.240235,2.427735 -1.626659,0.581287 -3.373575,0.871094 -5.240234,0.871094 h -1.71875 V 8.8730469 H 31.90625 V 32.28125 h 4.919922 c 2.293322,0 4.453809,-0.366684 6.480469,-1.099609 2.026656,-0.732923 3.787921,-1.744265 5.28125,-3.033203 1.519994,-1.288937 2.705264,-2.816809 3.558593,-4.585938 0.879996,-1.769129 1.320313,-3.689311 1.320313,-5.761719 C 53.466797,15.728374 53.02648,13.794402 52.146484,12 51.293155,10.205598 50.107885,8.6383106 48.587891,7.2988281 47.094562,5.9846162 45.333297,4.9476512 43.306641,4.1894531 41.306648,3.4312551 39.16051,3.0527344 36.867188,3.0527344 Z"
         style="font-style:normal;font-variant:normal;font-weight:bold;font-stretch:normal;font-family:'Moonglade DEMO';-inkscape-font-specification:'Moonglade DEMO Bold';stroke-width:0.973523;fill:#ff00b4;fill-opacity:1"
         id="path886" />
    </g>
    <g
       style="font-style:normal;font-weight:normal;font-size:9.90723999999999982px;line-height:1.25;font-family:sans-serif;fill:#ff00b4;fill-opacity:1;stroke:none;stroke-width:0.247681"
       id="text24"
       transform="matrix(1.0682379,0,0,0.93612105,0,0.52916667)"
       aria-label="X">
      <path
         inkscape:connector-curvature="0"
         id="path1722"
         style="font-style:normal;font-variant:normal;font-weight:normal;font-stretch:normal;font-family:Moondance;-inkscape-font-specification:Moondance;stroke-width:0.247681;fill:#ff00b4;fill-opacity:1"
         d="m 54.757946,81.79482 h -0.921373 l -4.279928,7.43043 h 0.911466 z m -1.922004,6.518964 0.237773,-0.426011 0.782672,1.337477 h 0.911466 l -1.694138,-2.922636 -0.683599,1.178962 z M 51.458835,82.76573 51.250783,83.132298 50.478018,81.79482 h -0.911466 l 1.684231,2.922636 0.663785,-1.14924 z" />
    </g>
    <g
       style="font-style:normal;font-weight:normal;font-size:10.30310000000000059px;line-height:1.25;font-family:sans-serif;fill:#ff00b4;fill-opacity:1;stroke:none;stroke-width:0.257578"
       id="text28"
       transform="matrix(1.0271947,0,0,0.97352527,0,1.0583333)"
       aria-label="R">
      <path
         inkscape:connector-curvature="0"
         id="path1716"
         style="font-style:normal;font-variant:normal;font-weight:normal;font-stretch:normal;font-family:Moondance;-inkscape-font-specification:Moondance;stroke-width:0.257578;fill:#ff00b4;fill-opacity:1"
         d="M 46.239759,89.977999 V 89.01981 l -0.504852,0.288487 v -2.92608 h 1.236372 c 1.050916,0 1.906073,0.855157 1.906073,1.906073 0,0.700611 -0.381214,1.318797 -1.040613,1.700012 l -2.92608,1.689708 v 1.607284 h 0.824248 v -1.133341 c 0.422427,-0.247275 0.741823,-0.422427 1.040613,-0.59758 l 1.730921,1.730921 h 1.184856 l -2.163651,-2.163651 c 0.793339,-0.453337 0.844854,-0.494549 0.916976,-0.535762 0.752126,-0.484245 1.256978,-1.329099 1.256978,-2.297591 0,-1.504252 -1.226069,-2.730321 -2.730321,-2.730321 h -2.06062 v 5.172156 c 0.772732,-0.443033 1.081825,-0.618186 1.3291,-0.752126 z" />
    </g>
    <rect
       transform="rotate(45)"
       y="7.7497053"
       x="90.749001"
       height="29.466465"
       width="0.33408689"
       id="rect2607"
       style="opacity:1;fill:#ff00b4;fill-opacity:1;stroke-width:0.283911" />
    <rect
       style="opacity:1;fill:#ff00b4;fill-opacity:1;stroke-width:0.283911"
       id="rect2609"
       width="0.33408689"
       height="29.466465"
       x="-22.649981"
       y="-105.64928"
       transform="matrix(0.70710678,-0.70710678,-0.70710678,-0.70710678,0,0)" />
  </g>
</svg>
